<mxfile host="app.diagrams.net" agent="Mozilla/5.0 (Windows NT 10.0; Win64; x64) AppleWebKit/537.36 (KHTML, like Gecko) Chrome/138.0.0.0 Safari/537.36" version="28.0.7">
  <diagram name="Page-1" id="PqsYpwXlRkuiAIlZtVTI">
    <mxGraphModel dx="1572" dy="918" grid="1" gridSize="10" guides="1" tooltips="1" connect="1" arrows="1" fold="1" page="1" pageScale="1" pageWidth="850" pageHeight="1100" math="0" shadow="0">
      <root>
        <mxCell id="0" />
        <mxCell id="1" parent="0" />
        <mxCell id="YmNDRy1fXFwblrVvYHpf-2" value="&lt;font style=&quot;font-size: 15px;&quot;&gt;plan&lt;/font&gt;" style="rounded=0;whiteSpace=wrap;html=1;fillColor=#d5e8d4;strokeColor=#82b366;" vertex="1" parent="1">
          <mxGeometry x="290" y="30" width="120" height="60" as="geometry" />
        </mxCell>
        <mxCell id="YmNDRy1fXFwblrVvYHpf-3" value="&lt;font style=&quot;font-size: 15px;&quot;&gt;folder&lt;/font&gt;" style="shape=note;whiteSpace=wrap;html=1;backgroundOutline=1;darkOpacity=0.05;fillColor=#f8cecc;strokeColor=#b85450;" vertex="1" parent="1">
          <mxGeometry x="320" y="120" width="80" height="90" as="geometry" />
        </mxCell>
        <mxCell id="YmNDRy1fXFwblrVvYHpf-4" value="&lt;font style=&quot;font-size: 15px;&quot;&gt;Build&lt;/font&gt;" style="rounded=0;whiteSpace=wrap;html=1;fillColor=#e1d5e7;strokeColor=#9673a6;" vertex="1" parent="1">
          <mxGeometry x="300" y="240" width="120" height="60" as="geometry" />
        </mxCell>
        <mxCell id="YmNDRy1fXFwblrVvYHpf-5" value="&lt;font style=&quot;font-size: 15px;&quot;&gt;Test&lt;/font&gt;" style="rhombus;whiteSpace=wrap;html=1;fillColor=#fff2cc;strokeColor=#d6b656;" vertex="1" parent="1">
          <mxGeometry x="320" y="320" width="80" height="80" as="geometry" />
        </mxCell>
        <mxCell id="YmNDRy1fXFwblrVvYHpf-6" value="&lt;font style=&quot;font-size: 15px;&quot;&gt;Release&lt;/font&gt;" style="ellipse;whiteSpace=wrap;html=1;fillColor=#d80073;fontColor=#ffffff;strokeColor=#A50040;" vertex="1" parent="1">
          <mxGeometry x="300" y="430" width="120" height="60" as="geometry" />
        </mxCell>
        <mxCell id="YmNDRy1fXFwblrVvYHpf-7" value="&lt;span style=&quot;font-size: 15px;&quot;&gt;Deploy&lt;/span&gt;" style="shape=cylinder3;whiteSpace=wrap;html=1;boundedLbl=1;backgroundOutline=1;size=15;fillColor=#1ba1e2;fontColor=#ffffff;strokeColor=#006EAF;" vertex="1" parent="1">
          <mxGeometry x="330" y="520" width="60" height="80" as="geometry" />
        </mxCell>
        <mxCell id="YmNDRy1fXFwblrVvYHpf-9" value="&lt;font style=&quot;font-size: 15px;&quot;&gt;Monitor&lt;/font&gt;" style="shape=parallelogram;perimeter=parallelogramPerimeter;whiteSpace=wrap;html=1;fixedSize=1;fillColor=#fad9d5;strokeColor=#ae4132;" vertex="1" parent="1">
          <mxGeometry x="270" y="740" width="160" height="60" as="geometry" />
        </mxCell>
        <mxCell id="YmNDRy1fXFwblrVvYHpf-11" value="" style="endArrow=classic;html=1;rounded=0;exitX=0.5;exitY=1;exitDx=0;exitDy=0;" edge="1" parent="1" source="YmNDRy1fXFwblrVvYHpf-2">
          <mxGeometry width="50" height="50" relative="1" as="geometry">
            <mxPoint x="349.55" y="80" as="sourcePoint" />
            <mxPoint x="350" y="120" as="targetPoint" />
          </mxGeometry>
        </mxCell>
        <mxCell id="YmNDRy1fXFwblrVvYHpf-12" value="" style="endArrow=classic;html=1;rounded=0;" edge="1" parent="1">
          <mxGeometry width="50" height="50" relative="1" as="geometry">
            <mxPoint x="349.55" y="210" as="sourcePoint" />
            <mxPoint x="350" y="240" as="targetPoint" />
          </mxGeometry>
        </mxCell>
        <mxCell id="YmNDRy1fXFwblrVvYHpf-13" value="" style="endArrow=classic;html=1;rounded=0;" edge="1" parent="1">
          <mxGeometry width="50" height="50" relative="1" as="geometry">
            <mxPoint x="359.55" y="400" as="sourcePoint" />
            <mxPoint x="359.55" y="430" as="targetPoint" />
          </mxGeometry>
        </mxCell>
        <mxCell id="YmNDRy1fXFwblrVvYHpf-14" value="" style="endArrow=classic;html=1;rounded=0;" edge="1" parent="1">
          <mxGeometry width="50" height="50" relative="1" as="geometry">
            <mxPoint x="359.55" y="490" as="sourcePoint" />
            <mxPoint x="359.55" y="520" as="targetPoint" />
          </mxGeometry>
        </mxCell>
        <mxCell id="YmNDRy1fXFwblrVvYHpf-15" value="" style="endArrow=classic;html=1;rounded=0;" edge="1" parent="1" source="YmNDRy1fXFwblrVvYHpf-8">
          <mxGeometry width="50" height="50" relative="1" as="geometry">
            <mxPoint x="359.55" y="610" as="sourcePoint" />
            <mxPoint x="359.55" y="650" as="targetPoint" />
            <Array as="points">
              <mxPoint x="360" y="620" />
            </Array>
          </mxGeometry>
        </mxCell>
        <mxCell id="YmNDRy1fXFwblrVvYHpf-16" value="" style="endArrow=classic;html=1;rounded=0;" edge="1" parent="1" target="YmNDRy1fXFwblrVvYHpf-8">
          <mxGeometry width="50" height="50" relative="1" as="geometry">
            <mxPoint x="359.55" y="610" as="sourcePoint" />
            <mxPoint x="359.55" y="650" as="targetPoint" />
            <Array as="points">
              <mxPoint x="360" y="600" />
            </Array>
          </mxGeometry>
        </mxCell>
        <mxCell id="YmNDRy1fXFwblrVvYHpf-8" value="&lt;font style=&quot;font-size: 15px;&quot;&gt;Operate&lt;/font&gt;" style="rounded=0;whiteSpace=wrap;html=1;fillColor=#fa6800;fontColor=#000000;strokeColor=#C73500;" vertex="1" parent="1">
          <mxGeometry x="300" y="640" width="120" height="40" as="geometry" />
        </mxCell>
        <mxCell id="YmNDRy1fXFwblrVvYHpf-19" value="" style="endArrow=classic;html=1;rounded=0;" edge="1" parent="1">
          <mxGeometry width="50" height="50" relative="1" as="geometry">
            <mxPoint x="359.55" y="300" as="sourcePoint" />
            <mxPoint x="359.55" y="330" as="targetPoint" />
          </mxGeometry>
        </mxCell>
        <mxCell id="YmNDRy1fXFwblrVvYHpf-20" value="" style="endArrow=classic;html=1;rounded=0;entryX=0.56;entryY=0;entryDx=0;entryDy=0;entryPerimeter=0;" edge="1" parent="1" target="YmNDRy1fXFwblrVvYHpf-9">
          <mxGeometry width="50" height="50" relative="1" as="geometry">
            <mxPoint x="359.55" y="680" as="sourcePoint" />
            <mxPoint x="359.55" y="720" as="targetPoint" />
          </mxGeometry>
        </mxCell>
      </root>
    </mxGraphModel>
  </diagram>
</mxfile>
